<svg xmlns="http://www.w3.org/2000/svg" viewBox="0 0 40 40">
  <defs>
    <style>
      .cls-1 {
        opacity: 0.85;
      }

      .cls-2 {
        fill: #fffac8;
      }

      .cls-3 {
        fill: #f8941e;
      }
    </style>
  </defs>
  <title>Asset 3</title>
  <g id="Layer_2" data-name="Layer 2">
    <g id="Masonry_Grid" data-name="Masonry Grid">
      <g>
        <g class="cls-1">
          <path class="cls-2" d="M20,38.11A18.11,18.11,0,1,1,38.11,20,18.13,18.13,0,0,1,20,38.11Z"/>
          <path class="cls-3" d="M20,3.77A16.23,16.23,0,1,1,3.77,20,16.24,16.24,0,0,1,20,3.77M20,0A20,20,0,1,0,40,20,20,20,0,0,0,20,0Z"/>
        </g>
        <polygon class="cls-3" points="26.8 20 21.57 23.02 16.35 26.04 16.35 20 16.35 13.96 21.57 16.98 26.8 20"/>
      </g>
    </g>
  </g>
</svg>
