<svg xmlns="http://www.w3.org/2000/svg" viewBox="0 0 20.12 16.35">
  <title>Asset 10</title>
  <g id="Layer_2" data-name="Layer 2">
    <g id="Masonry_Grid" data-name="Masonry Grid">
      <path d="M20.12,1.94a8.24,8.24,0,0,1-2.37.65A4.14,4.14,0,0,0,19.56.3a8.25,8.25,0,0,1-2.62,1,4.13,4.13,0,0,0-7,3.76A11.71,11.71,0,0,1,1.4.75,4.13,4.13,0,0,0,2.68,6.27,4.11,4.11,0,0,1,.81,5.75V5.8a4.13,4.13,0,0,0,3.31,4A4.16,4.16,0,0,1,3,10a4.1,4.1,0,0,1-.78-.08,4.13,4.13,0,0,0,3.85,2.87A8.28,8.28,0,0,1,1,14.55a8.52,8.52,0,0,1-1-.06,11.69,11.69,0,0,0,6.33,1.85A11.66,11.66,0,0,0,18.07,4.61c0-.18,0-.36,0-.53A8.41,8.41,0,0,0,20.12,1.94Z"/>
    </g>
  </g>
</svg>
