<svg xmlns="http://www.w3.org/2000/svg" viewBox="0 0 21.19 14.77">
  <defs>
    <style>
      .cls-1 {
        fill: #fff;
      }
    </style>
  </defs>
  <title>Asset 11</title>
  <g id="Layer_2" data-name="Layer 2">
    <g id="Masonry_Grid" data-name="Masonry Grid">
      <g>
        <path d="M21.19,7.39a22.63,22.63,0,0,1-.37,5,2.68,2.68,0,0,1-2.29,2.08,71.23,71.23,0,0,1-7.94.29,71.22,71.22,0,0,1-7.94-.29A2.68,2.68,0,0,1,.37,12.4a22.72,22.72,0,0,1-.37-5,22.69,22.69,0,0,1,.37-5A2.68,2.68,0,0,1,2.66.29,71.22,71.22,0,0,1,10.6,0a71.23,71.23,0,0,1,7.94.29,2.67,2.67,0,0,1,2.29,2.08A22.72,22.72,0,0,1,21.19,7.39Z"/>
        <polygon class="cls-1" points="13.79 7.08 8.28 4.01 8.28 10.15 13.79 7.08 8.28 4.01 8.28 10.15 13.79 7.08"/>
      </g>
    </g>
  </g>
</svg>
